<svg xmlns="http://www.w3.org/2000/svg" xmlns:xlink="http://www.w3.org/1999/xlink" width="500" zoomAndPan="magnify" viewBox="0 0 375 374.999991" height="500" preserveAspectRatio="xMidYMid meet" version="1.0"><defs><clipPath id="7a0b22de89"><path d="M 82.5 42 L 282 42 L 282 337.5 L 82.5 337.5 Z M 82.5 42 " clip-rule="nonzero"/></clipPath><clipPath id="d7d307fb0b"><path d="M 93 37.5 L 292.5 37.5 L 292.5 333 L 93 333 Z M 93 37.5 " clip-rule="nonzero"/></clipPath></defs><g clip-path="url(#7a0b22de89)"><path fill="#b5aba1" d="M 256.675781 111.316406 L 218.132812 111.191406 L 218.132812 68.128906 C 218.132812 54.253906 207.066406 42.96875 193.464844 42.96875 L 170.511719 42.96875 C 156.914062 42.96875 145.847656 54.253906 145.847656 68.128906 L 145.847656 110.960938 L 107.445312 110.839844 C 93.882812 110.839844 82.816406 122.089844 82.777344 135.921875 L 82.710938 160.097656 C 82.671875 173.96875 93.703125 185.285156 107.300781 185.328125 L 145.847656 185.453125 L 145.847656 312.3125 C 145.847656 326.183594 156.914062 337.46875 170.511719 337.46875 L 193.464844 337.46875 C 207.066406 337.46875 218.132812 326.183594 218.132812 312.3125 L 218.132812 185.683594 C 218.132812 185.683594 256.523438 185.804688 256.527344 185.804688 C 270.09375 185.804688 281.160156 174.546875 281.199219 160.722656 L 281.269531 136.539062 C 281.308594 122.667969 270.269531 111.351562 256.675781 111.316406 " fill-opacity="1" fill-rule="nonzero"/></g><g clip-path="url(#d7d307fb0b)"><path fill="#56524f" d="M 267.605469 105.851562 L 229.0625 105.726562 L 229.0625 62.664062 C 229.0625 48.792969 217.996094 37.503906 204.390625 37.503906 L 181.441406 37.503906 C 167.839844 37.503906 156.773438 48.792969 156.773438 62.664062 L 156.773438 105.5 L 118.375 105.375 C 104.808594 105.375 93.742188 116.628906 93.707031 130.457031 L 93.636719 154.632812 C 93.597656 168.503906 104.628906 179.824219 118.226562 179.863281 L 156.773438 179.988281 L 156.773438 306.847656 C 156.773438 320.71875 167.839844 332.003906 181.441406 332.003906 L 204.390625 332.003906 C 217.996094 332.003906 229.0625 320.71875 229.0625 306.847656 L 229.0625 180.21875 C 229.0625 180.21875 267.457031 180.339844 267.457031 180.339844 C 281.019531 180.339844 292.089844 169.085938 292.128906 155.257812 L 292.199219 131.074219 C 292.234375 117.203125 281.199219 105.886719 267.605469 105.851562 " fill-opacity="1" fill-rule="nonzero"/></g><path fill="#f5f5f5" d="M 267.554688 121.339844 L 213.574219 121.164062 L 213.574219 62.664062 C 213.574219 57.347656 209.445312 52.996094 204.390625 52.996094 L 181.441406 52.996094 C 176.394531 52.996094 172.261719 57.347656 172.261719 62.664062 L 172.261719 121.035156 L 118.402344 120.863281 C 113.355469 120.84375 109.210938 125.183594 109.195312 130.503906 L 109.125 154.675781 C 109.109375 160 113.226562 164.363281 118.277344 164.378906 L 172.261719 164.550781 L 172.261719 306.851562 C 172.261719 312.167969 176.394531 316.519531 181.441406 316.519531 L 204.390625 316.519531 C 209.445312 316.519531 213.574219 312.167969 213.574219 306.851562 L 213.574219 164.679688 L 267.429688 164.855469 C 272.480469 164.867188 276.625 160.53125 276.640625 155.210938 L 276.710938 131.039062 C 276.722656 125.71875 272.605469 121.351562 267.554688 121.339844 " fill-opacity="1" fill-rule="nonzero"/></svg>