<svg xmlns="http://www.w3.org/2000/svg" xmlns:xlink="http://www.w3.org/1999/xlink" width="500" zoomAndPan="magnify" viewBox="0 0 375 374.999991" height="500" preserveAspectRatio="xMidYMid meet" version="1.0"><defs><clipPath id="09d6c8b90a"><path d="M 93.785156 58 L 272 58 L 272 321.371094 L 93.785156 321.371094 Z M 93.785156 58 " clip-rule="nonzero"/></clipPath><clipPath id="66a7f5de9d"><path d="M 103 53.621094 L 281 53.621094 L 281 317 L 103 317 Z M 103 53.621094 " clip-rule="nonzero"/></clipPath></defs><g clip-path="url(#09d6c8b90a)"><path fill="#b5aba1" d="M 249.238281 119.5 L 214.839844 119.390625 L 214.839844 80.957031 C 214.839844 68.574219 204.964844 58.503906 192.824219 58.503906 L 172.339844 58.503906 C 160.199219 58.503906 150.324219 68.574219 150.324219 80.957031 L 150.324219 119.183594 L 116.050781 119.074219 C 103.945312 119.074219 94.070312 129.117188 94.035156 141.460938 L 93.976562 163.039062 C 93.941406 175.417969 103.785156 185.519531 115.921875 185.554688 L 150.324219 185.671875 L 150.324219 298.890625 C 150.324219 311.273438 160.199219 321.34375 172.339844 321.34375 L 192.824219 321.34375 C 204.964844 321.34375 214.839844 311.273438 214.839844 298.890625 L 214.839844 185.875 C 214.839844 185.875 249.105469 185.984375 249.105469 185.984375 C 261.210938 185.984375 271.09375 175.9375 271.128906 163.59375 L 271.191406 142.015625 C 271.222656 129.632812 261.371094 119.535156 249.238281 119.5 " fill-opacity="1" fill-rule="nonzero"/></g><g clip-path="url(#66a7f5de9d)"><path fill="#56524f" d="M 258.996094 114.625 L 224.59375 114.511719 L 224.59375 76.078125 C 224.59375 63.699219 214.714844 53.625 202.574219 53.625 L 182.089844 53.625 C 169.953125 53.625 160.074219 63.699219 160.074219 76.078125 L 160.074219 114.308594 L 125.804688 114.199219 C 113.699219 114.199219 103.820312 124.242188 103.789062 136.585938 L 103.726562 158.164062 C 103.691406 170.542969 113.539062 180.644531 125.675781 180.679688 L 160.074219 180.792969 L 160.074219 294.011719 C 160.074219 306.394531 169.953125 316.46875 182.089844 316.46875 L 202.574219 316.46875 C 214.714844 316.46875 224.59375 306.394531 224.59375 294.011719 L 224.59375 181 C 224.59375 181 258.859375 181.105469 258.859375 181.105469 C 270.964844 181.105469 280.84375 171.0625 280.878906 158.71875 L 280.941406 137.136719 C 280.972656 124.753906 271.125 114.65625 258.996094 114.625 " fill-opacity="1" fill-rule="nonzero"/></g><path fill="#f5f5f5" d="M 258.949219 128.445312 L 210.769531 128.292969 L 210.769531 76.082031 C 210.769531 71.332031 207.085938 67.449219 202.574219 67.449219 L 182.089844 67.449219 C 177.585938 67.449219 173.898438 71.332031 173.898438 76.082031 L 173.898438 128.175781 L 125.832031 128.019531 C 121.324219 128.003906 117.625 131.878906 117.613281 136.628906 L 117.550781 158.199219 C 117.535156 162.949219 121.210938 166.84375 125.71875 166.859375 L 173.898438 167.011719 L 173.898438 294.015625 C 173.898438 298.761719 177.585938 302.644531 182.089844 302.644531 L 202.574219 302.644531 C 207.085938 302.644531 210.769531 298.761719 210.769531 294.015625 L 210.769531 167.128906 L 258.835938 167.285156 C 263.34375 167.296875 267.042969 163.425781 267.058594 158.675781 L 267.121094 137.105469 C 267.128906 132.355469 263.457031 128.460938 258.949219 128.445312 " fill-opacity="1" fill-rule="nonzero"/></svg>